<svg xmlns="http://www.w3.org/2000/svg" version="1.1" xmlns:xlink="http://www.w3.org/1999/xlink" xmlns:svgjs="http://svgjs.dev/svgjs" width="1500" height="1500" viewBox="0 0 1500 1500"><rect width="1500" height="1500" fill="#000000"></rect><g transform="matrix(0.6666666666666666,0,0,0.6666666666666666,249.39393939393938,438.58569500674764)"><svg viewBox="0 0 396 247" data-background-color="#dedede" preserveAspectRatio="xMidYMid meet" height="935" width="1500" xmlns="http://www.w3.org/2000/svg" xmlns:xlink="http://www.w3.org/1999/xlink"><g id="tight-bounds" transform="matrix(1,0,0,1,0.2400000000000091,-0.09999999999999432)"><svg viewBox="0 0 395.52 247.2" height="247.2" width="395.52"><g><svg></svg></g><g><svg viewBox="0 0 395.52 247.2" height="247.2" width="395.52"><g transform="matrix(1,0,0,1,124.12834257832753,47.215199999999996)"><svg viewBox="0 0 147.26331484334492 152.7696" height="152.7696" width="147.26331484334492"><g><svg viewBox="0 0 147.26331484334492 152.7696" height="152.7696" width="147.26331484334492"><g><svg viewBox="0 0 244.43135999999998 253.57083082354325" height="152.7696" width="147.26331484334492"><g transform="matrix(1,0,0,1,0,138.7224426811361)"><svg viewBox="0 0 244.43135999999998 114.84838814240713" height="114.84838814240713" width="244.43135999999998"><g id="textblocktransform"><svg viewBox="0 0 244.43135999999998 114.84838814240713" height="114.84838814240713" width="244.43135999999998" id="textblock"><g><svg viewBox="0 0 244.43135999999998 63.22554649517684" height="63.22554649517684" width="244.43135999999998"><g transform="matrix(1,0,0,1,0,0)"><svg width="244.43135999999998" viewBox="4.5 -35.6 139.94 36.2" height="63.22554649517684" data-palette-color="#000000"><path d="M23.9 0L4.5 0 4.5-32.8 23.4-32.8 23.4-29.3 8.65-29.3 8.65-19 21.1-19 21.1-15.45 8.65-15.45 8.65-3.55 23.9-3.55 23.9 0ZM34.5 0L30.45 0 30.45-35.6 34.5-35.6 34.5-11.5 34.65-11.5 45-24.3 49.55-24.3 41.4-14.55 50.65 0 46.15 0 39.05-11.7 34.5-6.4 34.5 0ZM61.8 0.6L61.8 0.6Q59.84 0.6 58.52 0 57.2-0.6 56.37-1.65 55.55-2.7 55.2-4.2 54.84-5.7 54.84-7.5L54.84-7.5 54.84-20.95 51.25-20.95 51.25-24.05 55.05-24.3 55.55-31.1 59-31.1 59-24.3 65.55-24.3 65.55-20.95 59-20.95 59-7.45Q59-5.2 59.82-3.98 60.65-2.75 62.75-2.75L62.75-2.75Q63.4-2.75 64.15-2.95 64.9-3.15 65.5-3.4L65.5-3.4 66.3-0.3Q65.3 0.05 64.12 0.33 62.95 0.6 61.8 0.6ZM75.14 0L71.04 0 71.04-24.3 75.14-24.3 75.14 0ZM73.14-29.3L73.14-29.3Q71.94-29.3 71.12-30.05 70.29-30.8 70.29-31.95L70.29-31.95Q70.29-33.15 71.12-33.88 71.94-34.6 73.14-34.6L73.14-34.6Q74.34-34.6 75.17-33.88 75.99-33.15 75.99-31.95L75.99-31.95Q75.99-30.8 75.17-30.05 74.34-29.3 73.14-29.3ZM87.44 0L83.34 0 83.34-24.3 86.74-24.3 87.09-19.9 87.24-19.9Q88.49-22.2 90.27-23.55 92.04-24.9 94.14-24.9L94.14-24.9Q95.59-24.9 96.74-24.4L96.74-24.4 95.94-20.8Q95.34-21 94.84-21.1 94.34-21.2 93.59-21.2L93.59-21.2Q92.04-21.2 90.37-19.95 88.69-18.7 87.44-15.6L87.44-15.6 87.44 0ZM110.04 0.6L110.04 0.6Q107.59 0.6 105.46-0.28 103.34-1.15 101.76-2.78 100.19-4.4 99.29-6.75 98.39-9.1 98.39-12.1L98.39-12.1Q98.39-15.1 99.31-17.48 100.24-19.85 101.76-21.5 103.29-23.15 105.24-24.03 107.19-24.9 109.29-24.9L109.29-24.9Q111.59-24.9 113.41-24.1 115.24-23.3 116.46-21.8 117.69-20.3 118.34-18.2 118.99-16.1 118.99-13.5L118.99-13.5Q118.99-12.85 118.96-12.23 118.94-11.6 118.84-11.15L118.84-11.15 102.44-11.15Q102.69-7.25 104.86-4.98 107.04-2.7 110.54-2.7L110.54-2.7Q112.29-2.7 113.76-3.23 115.24-3.75 116.59-4.6L116.59-4.6 118.04-1.9Q116.44-0.9 114.49-0.15 112.54 0.6 110.04 0.6ZM102.39-14.1L102.39-14.1 115.39-14.1Q115.39-17.8 113.81-19.73 112.24-21.65 109.39-21.65L109.39-21.65Q108.09-21.65 106.91-21.15 105.74-20.65 104.79-19.68 103.84-18.7 103.21-17.3 102.59-15.9 102.39-14.1ZM129.09 0L124.98 0 124.98-24.3 128.38-24.3 128.74-20.8 128.88-20.8Q130.63-22.55 132.56-23.73 134.49-24.9 137.03-24.9L137.03-24.9Q140.88-24.9 142.66-22.5 144.44-20.1 144.44-15.4L144.44-15.4 144.44 0 140.34 0 140.34-14.85Q140.34-18.3 139.24-19.83 138.13-21.35 135.74-21.35L135.74-21.35Q133.84-21.35 132.38-20.4 130.94-19.45 129.09-17.6L129.09-17.6 129.09 0Z" opacity="1" transform="matrix(1,0,0,1,0,0)" fill="#ffffff" class="wordmark-text-0" data-fill-palette-color="primary" id="text-0"></path></svg></g></svg></g><g transform="matrix(1,0,0,1,0,78.1515806095722)"><svg viewBox="0 0 244.43135999999998 36.69680753283492" height="36.69680753283492" width="244.43135999999998"><g transform="matrix(1,0,0,1,0,0)"><svg width="244.43135999999998" viewBox="1.95 -36.65 247.42000000000002 37.15" height="36.69680753283492" data-palette-color="#61777f"><path d="M29.05-7.55L31.35-2.6Q30.75-2.15 29.68-1.63 28.6-1.1 27.15-0.65 25.7-0.2 23.93 0.1 22.15 0.4 20.15 0.4L20.15 0.4Q15.9 0.4 12.53-1.07 9.15-2.55 6.8-5.05 4.45-7.55 3.2-10.85 1.95-14.15 1.95-17.85L1.95-17.85Q1.95-21.95 3.43-25.4 4.9-28.85 7.45-31.35 10-33.85 13.43-35.25 16.85-36.65 20.7-36.65L20.7-36.65Q22.15-36.65 23.65-36.45 25.15-36.25 26.48-35.9 27.8-35.55 28.83-35.08 29.85-34.6 30.4-34.1L30.4-34.1Q30-33.5 29.78-33.1 29.55-32.7 29.3-32.27 29.05-31.85 28.75-31.3 28.45-30.75 27.95-29.85L27.95-29.85Q27.3-30.3 26.43-30.6 25.55-30.9 24.6-31.1 23.65-31.3 22.68-31.4 21.7-31.5 20.9-31.5L20.9-31.5Q18-31.5 15.53-30.43 13.05-29.35 11.25-27.53 9.45-25.7 8.43-23.3 7.4-20.9 7.4-18.3L7.4-18.3Q7.4-15.75 8.38-13.4 9.35-11.05 11.08-9.2 12.8-7.35 15.23-6.25 17.65-5.15 20.55-5.15L20.55-5.15Q22.1-5.15 23.55-5.45 25-5.75 26.18-6.15 27.35-6.55 28.13-6.95 28.9-7.35 29.05-7.55L29.05-7.55ZM32.9-10.5L32.9-10.5Q32.9-12.75 33.77-14.75 34.65-16.75 36.15-18.23 37.65-19.7 39.67-20.58 41.7-21.45 44.05-21.45L44.05-21.45Q46.4-21.45 48.42-20.58 50.45-19.7 51.92-18.23 53.4-16.75 54.22-14.75 55.05-12.75 55.05-10.5L55.05-10.5Q55.05-8.25 54.22-6.25 53.4-4.25 51.92-2.75 50.45-1.25 48.42-0.38 46.4 0.5 44 0.5L44 0.5Q41.7 0.5 39.67-0.3 37.65-1.1 36.15-2.55 34.65-4 33.77-6.03 32.9-8.05 32.9-10.5ZM37.15-10.45L37.15-10.45Q37.15-9.05 37.67-7.83 38.2-6.6 39.12-5.68 40.05-4.75 41.27-4.23 42.5-3.7 43.9-3.7L43.9-3.7Q45.3-3.7 46.55-4.23 47.8-4.75 48.72-5.68 49.65-6.6 50.2-7.83 50.75-9.05 50.75-10.45L50.75-10.45Q50.75-11.85 50.2-13.1 49.65-14.35 48.72-15.28 47.8-16.2 46.55-16.73 45.3-17.25 43.9-17.25L43.9-17.25Q42.5-17.25 41.27-16.73 40.05-16.2 39.12-15.28 38.2-14.35 37.67-13.1 37.15-11.85 37.15-10.45ZM59.59 0L59.59-20.9 63.34-20.9Q63.45-19.35 63.52-18.07 63.59-16.8 63.7-15.55L63.7-15.55Q64.84-18.25 66.97-19.85 69.09-21.45 72.19-21.45L72.19-21.45Q75.34-21.45 77.25-19.7 79.14-17.95 79.25-15.2L79.25-15.2 79.25 0 74.94 0 74.94-13.25Q74.84-14.85 73.84-15.98 72.84-17.1 70.69-17.2L70.69-17.2Q69.19-17.2 67.94-16.68 66.69-16.15 65.8-15.25 64.89-14.35 64.37-13.1 63.84-11.85 63.84-10.35L63.84-10.35 63.84 0 59.59 0ZM96.69-19.05L96.69-19.05 94.44-16.05Q94.39-16.1 94.09-16.3 93.79-16.5 93.32-16.7 92.84-16.9 92.22-17.07 91.59-17.25 90.94-17.25L90.94-17.25Q90.09-17.25 89.27-16.85 88.44-16.45 88.44-15.35L88.44-15.35Q88.44-14.4 89.12-13.8 89.79-13.2 90.79-12.73 91.79-12.25 92.97-11.75 94.14-11.25 95.14-10.53 96.14-9.8 96.82-8.72 97.49-7.65 97.49-6L97.49-6Q97.49-3.2 95.57-1.38 93.64 0.45 90.29 0.45L90.29 0.45Q88.34 0.45 86.47-0.23 84.59-0.9 83.44-2.2L83.44-2.2Q83.79-2.55 84.22-3.1 84.64-3.65 85.07-4.15 85.49-4.65 85.77-4.98 86.04-5.3 86.09-5.3L86.09-5.3Q86.09-5.25 86.47-5 86.84-4.75 87.44-4.48 88.04-4.2 88.79-3.98 89.54-3.75 90.29-3.75L90.29-3.75Q91.49-3.75 92.34-4.35 93.19-4.95 93.19-5.95L93.19-5.95Q93.19-6.85 92.52-7.38 91.84-7.9 90.84-8.35 89.84-8.8 88.64-9.28 87.44-9.75 86.44-10.5 85.44-11.25 84.77-12.38 84.09-13.5 84.09-15.3L84.09-15.3Q84.09-17 84.72-18.15 85.34-19.3 86.32-20.03 87.29-20.75 88.49-21.08 89.69-21.4 90.79-21.4L90.79-21.4Q92.24-21.4 93.89-20.8 95.54-20.2 96.69-19.05ZM103.84-20.85L103.84-30.1 108.09-30.1 108.09-20.85 113.69-20.85 113.69-17.05 108.09-17.05 108.09 0 103.84 0 103.84-17.05 100.09-17.05 100.09-20.85 103.84-20.85ZM129.69-21.45L128.74-15.95Q127.34-15.95 126.04-15.58 124.74-15.2 123.71-14.45 122.69-13.7 122.09-12.58 121.49-11.45 121.49-10L121.49-10 121.49 0 117.24 0 117.24-20.9 120.99-20.9Q121.09-19.35 121.16-18.07 121.24-16.8 121.34-15.55L121.34-15.55Q121.99-16.9 123.04-18 124.09-19.1 125.29-19.85 126.49-20.6 127.64-21.03 128.79-21.45 129.69-21.45L129.69-21.45ZM152.24-20.9L152.24 0.45 148.64 0.45 148.14-5.35Q146.99-2.8 144.91-1.15 142.84 0.5 139.64 0.5L139.64 0.5Q136.44 0.5 134.56-1.23 132.69-2.95 132.59-5.75L132.59-5.75 132.59-20.9 136.84-20.9 136.84-7.65Q136.94-6.1 137.96-5 138.99-3.9 141.14-3.75L141.14-3.75Q142.64-3.75 143.89-4.28 145.14-4.8 146.04-5.7 146.94-6.6 147.44-7.85 147.94-9.1 147.94-10.6L147.94-10.6 147.94-20.9 152.24-20.9ZM172.23-5.15L172.23-5.15Q172.93-4.3 173.56-3.53 174.18-2.75 174.83-1.9L174.83-1.9Q173.43-0.8 171.68-0.15 169.93 0.5 167.88 0.5L167.88 0.5Q165.58 0.5 163.56-0.38 161.53-1.25 160.03-2.75 158.53-4.25 157.66-6.25 156.78-8.25 156.78-10.5L156.78-10.5Q156.78-12.75 157.66-14.75 158.53-16.75 160.03-18.23 161.53-19.7 163.56-20.58 165.58-21.45 167.88-21.45L167.88-21.45Q169.98-21.45 171.76-20.8 173.53-20.15 174.98-19.05L174.98-19.05 172.23-15.8Q171.38-16.5 170.28-16.88 169.18-17.25 167.88-17.25L167.88-17.25Q166.38-17.25 165.13-16.73 163.88-16.2 162.96-15.3 162.03-14.4 161.53-13.18 161.03-11.95 161.03-10.5L161.03-10.5Q161.03-9.05 161.53-7.83 162.03-6.6 162.96-5.68 163.88-4.75 165.13-4.23 166.38-3.7 167.88-3.7L167.88-3.7Q169.18-3.7 170.28-4.08 171.38-4.45 172.23-5.15ZM180.83-20.85L180.83-30.1 185.08-30.1 185.08-20.85 190.68-20.85 190.68-17.05 185.08-17.05 185.08 0 180.83 0 180.83-17.05 177.08-17.05 177.08-20.85 180.83-20.85ZM193.68-28.9L193.68-28.9Q193.68-30.1 194.55-30.9 195.43-31.7 196.43-31.7L196.43-31.7Q197.43-31.7 198.28-30.9 199.13-30.1 199.13-28.9L199.13-28.9Q199.13-27.7 198.28-26.93 197.43-26.15 196.43-26.15L196.43-26.15Q195.43-26.15 194.55-26.93 193.68-27.7 193.68-28.9ZM198.48-20.9L198.48 0 194.23 0 194.23-20.9 198.48-20.9ZM203.03-10.5L203.03-10.5Q203.03-12.75 203.9-14.75 204.78-16.75 206.28-18.23 207.78-19.7 209.8-20.58 211.83-21.45 214.18-21.45L214.18-21.45Q216.53-21.45 218.55-20.58 220.58-19.7 222.05-18.23 223.53-16.75 224.35-14.75 225.18-12.75 225.18-10.5L225.18-10.5Q225.18-8.25 224.35-6.25 223.53-4.25 222.05-2.75 220.58-1.25 218.55-0.38 216.53 0.5 214.13 0.5L214.13 0.5Q211.83 0.5 209.8-0.3 207.78-1.1 206.28-2.55 204.78-4 203.9-6.03 203.03-8.05 203.03-10.5ZM207.28-10.45L207.28-10.45Q207.28-9.05 207.8-7.83 208.33-6.6 209.25-5.68 210.18-4.75 211.4-4.23 212.63-3.7 214.03-3.7L214.03-3.7Q215.43-3.7 216.68-4.23 217.93-4.75 218.85-5.68 219.78-6.6 220.33-7.83 220.88-9.05 220.88-10.45L220.88-10.45Q220.88-11.85 220.33-13.1 219.78-14.35 218.85-15.28 217.93-16.2 216.68-16.73 215.43-17.25 214.03-17.25L214.03-17.25Q212.63-17.25 211.4-16.73 210.18-16.2 209.25-15.28 208.33-14.35 207.8-13.1 207.28-11.85 207.28-10.45ZM229.72 0L229.72-20.9 233.47-20.9Q233.57-19.35 233.65-18.07 233.72-16.8 233.82-15.55L233.82-15.55Q234.97-18.25 237.1-19.85 239.22-21.45 242.32-21.45L242.32-21.45Q245.47-21.45 247.37-19.7 249.27-17.95 249.37-15.2L249.37-15.2 249.37 0 245.07 0 245.07-13.25Q244.97-14.85 243.97-15.98 242.97-17.1 240.82-17.2L240.82-17.2Q239.32-17.2 238.07-16.68 236.82-16.15 235.92-15.25 235.02-14.35 234.5-13.1 233.97-11.85 233.97-10.35L233.97-10.35 233.97 0 229.72 0Z" opacity="1" transform="matrix(1,0,0,1,0,0)" fill="#ffffff" class="slogan-text-1" data-fill-palette-color="secondary" id="text-1"></path></svg></g></svg></g></svg></g></svg></g><g transform="matrix(1,0,0,1,46.68638976,0)"><svg viewBox="0 0 151.05858048 123.79640856674074" height="123.79640856674074" width="151.05858048"><g><svg xmlns="http://www.w3.org/2000/svg" xmlns:xlink="http://www.w3.org/1999/xlink" version="1.1" x="0" y="0" viewBox="4.46 12.622999999999998 89.08200000000001 73.005" enable-background="new 0 0 100 100" xml:space="preserve" height="123.79640856674074" width="151.05858048" class="icon-icon-0" data-fill-palette-color="accent" id="icon-0"><path fill="#ffffff" d="M11.397 69.293v16.334h42.459V69.293H11.397zM24.458 82.123h-9.792v-9.14h9.792V82.123zM34.261 82.123h-6.535v-9.14h6.535V82.123zM47.321 82.123h-9.803v-9.14h9.803V82.123z" data-fill-palette-color="accent"></path><rect x="50.725" y="49.303" fill="#ffffff" width="3.132" height="17.947" data-fill-palette-color="accent"></rect><rect x="36.504" y="59.751" fill="#ffffff" width="12.098" height="2.614" data-fill-palette-color="accent"></rect><rect x="36.504" y="55.036" fill="#ffffff" width="12.098" height="2.565" data-fill-palette-color="accent"></rect><rect x="36.504" y="64.583" fill="#ffffff" width="12.098" height="2.667" data-fill-palette-color="accent"></rect><rect x="31.012" y="53.684" fill="#ffffff" width="3.23" height="13.566" data-fill-palette-color="accent"></rect><polygon fill="#ffffff" points="28.806,67.293 28.806,64.53 16.831,64.53 16.831,67.25 " data-fill-palette-color="accent"></polygon><rect x="11.397" y="60.377" fill="#ffffff" width="3.268" height="6.873" data-fill-palette-color="accent"></rect><path fill="#ffffff" d="M77.023 35.129l-6.949-22.506-5.941 22.506h-3.268-3.078l-0.943-1.427H11.999L4.46 41.664h56.405v6.549h3.268v29.705h-2.155l-4.853 7.71h29.102l-4.853-7.71h-4.17V48.212h3.267v-6.549h3.269v6.536h9.802v-13.07H77.023zM16.397 38.766h-5.301l2.172-2.171h5.297L16.397 38.766zM25.542 38.766h-5.301l2.172-2.171h5.298L25.542 38.766zM34.696 38.766h-5.301l2.173-2.171h5.298L34.696 38.766zM43.84 38.766h-5.301l2.173-2.171h5.298L43.84 38.766zM47.797 38.766l2.174-2.171h5.317l1.437 2.171H47.797zM70.259 21.438l1.652 5.35-4.083 3.849L70.259 21.438zM64.128 44.928V38.4h9.812v6.528H64.128zM73.936 48.695l-6.535 5.55v-5.55H73.936zM73.551 77.917H67.4v-1.058l6.535-6.154L73.551 77.917zM73.936 66.191l-6.535 6.15v-4.951l6.535-6.15V66.191zM73.936 57.145L67.4 63.293v-4.949l6.535-6.152V57.145zM67.409 35.129l5.483-5.169 1.594 5.169H67.409z" data-fill-palette-color="accent"></path></svg></g></svg></g><g></g></svg></g></svg></g></svg></g><g><path d="M154.543 38.223A73.632 73.632 0 0 1 240.977 38.223L237.541 38.223A70.197 70.197 0 0 0 157.979 38.223L154.543 38.223M154.543 208.977A73.632 73.632 0 0 0 240.977 208.977L237.541 208.977A70.197 70.197 0 0 1 157.979 208.977L154.543 208.977" fill="#ffffff" stroke="transparent" data-fill-palette-color="tertiary"></path></g></svg></g><defs></defs></svg><rect width="395.52" height="247.2" fill="none" stroke="none" visibility="hidden"></rect></g></svg></g></svg>